<svg width="223" height="47" viewBox="0 0 223 47" fill="none" xmlns="http://www.w3.org/2000/svg">
<path d="M7.73438 10.3545H3.0498L3.02441 8.38672H7.27734C7.97982 8.38672 8.59342 8.26823 9.11816 8.03125C9.6429 7.79427 10.0492 7.45573 10.3369 7.01562C10.6331 6.56706 10.7812 6.03385 10.7812 5.41602C10.7812 4.73893 10.6501 4.1888 10.3877 3.76562C10.1338 3.33398 9.74023 3.02083 9.20703 2.82617C8.68229 2.62305 8.01367 2.52148 7.20117 2.52148H3.5957V19H1.14551V0.515625H7.20117C8.14909 0.515625 8.99544 0.612956 9.74023 0.807617C10.485 0.993815 11.1156 1.29004 11.6318 1.69629C12.1566 2.09408 12.5544 2.60189 12.8252 3.21973C13.096 3.83757 13.2314 4.57812 13.2314 5.44141C13.2314 6.20312 13.0368 6.8929 12.6475 7.51074C12.2581 8.12012 11.7165 8.61947 11.0225 9.00879C10.3369 9.39811 9.53288 9.64779 8.61035 9.75781L7.73438 10.3545ZM7.62012 19H2.08496L3.46875 17.0068H7.62012C8.39876 17.0068 9.05892 16.8714 9.60059 16.6006C10.1507 16.3298 10.5697 15.9489 10.8574 15.458C11.1452 14.9587 11.2891 14.3704 11.2891 13.6934C11.2891 13.0078 11.1663 12.4154 10.9209 11.916C10.6755 11.4167 10.2904 11.0316 9.76562 10.7607C9.24089 10.4899 8.5638 10.3545 7.73438 10.3545H4.24316L4.26855 8.38672H9.04199L9.5625 9.09766C10.4512 9.17383 11.2044 9.42773 11.8223 9.85938C12.4401 10.2826 12.9098 10.8242 13.2314 11.4844C13.5615 12.1445 13.7266 12.8724 13.7266 13.668C13.7266 14.819 13.4727 15.7923 12.9648 16.5879C12.4655 17.375 11.7588 17.9759 10.8447 18.3906C9.93066 18.7969 8.85579 19 7.62012 19ZM27.1963 14.3281C27.1963 13.8965 27.1286 13.5156 26.9932 13.1855C26.8662 12.847 26.6377 12.5423 26.3076 12.2715C25.986 12.0007 25.5374 11.7425 24.9619 11.4971C24.3949 11.2516 23.6755 11.002 22.8037 10.748C21.8896 10.4772 21.0645 10.1768 20.3281 9.84668C19.5918 9.50814 18.9613 9.12305 18.4365 8.69141C17.9118 8.25977 17.5098 7.76465 17.2305 7.20605C16.9512 6.64746 16.8115 6.00846 16.8115 5.28906C16.8115 4.56966 16.9596 3.90527 17.2559 3.2959C17.5521 2.68652 17.9753 2.15755 18.5254 1.70898C19.084 1.25195 19.7484 0.896484 20.5186 0.642578C21.2887 0.388672 22.1478 0.261719 23.0957 0.261719C24.4837 0.261719 25.6602 0.52832 26.625 1.06152C27.5983 1.58626 28.3389 2.27604 28.8467 3.13086C29.3545 3.97721 29.6084 4.88281 29.6084 5.84766H27.1709C27.1709 5.15365 27.0228 4.54004 26.7266 4.00684C26.4303 3.46517 25.9818 3.04199 25.3809 2.7373C24.7799 2.42415 24.0182 2.26758 23.0957 2.26758C22.224 2.26758 21.5046 2.39876 20.9375 2.66113C20.3704 2.9235 19.9473 3.27897 19.668 3.72754C19.3971 4.17611 19.2617 4.68815 19.2617 5.26367C19.2617 5.65299 19.3421 6.00846 19.5029 6.33008C19.6722 6.64323 19.9303 6.93522 20.2773 7.20605C20.6328 7.47689 21.0814 7.72656 21.623 7.95508C22.1732 8.18359 22.8291 8.40365 23.5908 8.61523C24.6403 8.91146 25.5459 9.24154 26.3076 9.60547C27.0693 9.9694 27.6956 10.3799 28.1865 10.8369C28.6859 11.2855 29.054 11.7975 29.291 12.373C29.5365 12.9401 29.6592 13.5833 29.6592 14.3027C29.6592 15.056 29.5068 15.7373 29.2021 16.3467C28.8975 16.9561 28.4616 17.4766 27.8945 17.9082C27.3275 18.3398 26.6462 18.6742 25.8506 18.9111C25.0635 19.1396 24.1833 19.2539 23.21 19.2539C22.3551 19.2539 21.513 19.1354 20.6836 18.8984C19.8626 18.6615 19.1136 18.306 18.4365 17.832C17.7679 17.3581 17.2305 16.7741 16.8242 16.0801C16.4264 15.3776 16.2275 14.5651 16.2275 13.6426H18.665C18.665 14.2773 18.7878 14.8232 19.0332 15.2803C19.2786 15.7288 19.613 16.1012 20.0361 16.3975C20.4678 16.6937 20.9544 16.9137 21.4961 17.0576C22.0462 17.193 22.6175 17.2607 23.21 17.2607C24.0648 17.2607 24.7884 17.1423 25.3809 16.9053C25.9733 16.6683 26.4219 16.3298 26.7266 15.8896C27.0397 15.4495 27.1963 14.929 27.1963 14.3281ZM39.625 2.15332L33.5059 19H31.0049L38.0508 0.515625H39.6631L39.625 2.15332ZM44.7539 19L38.6221 2.15332L38.584 0.515625H40.1963L47.2676 19H44.7539ZM44.4365 12.1572V14.1631H34.0518V12.1572H44.4365ZM7.41797 31.4336V32.9277H2.07617V31.4336H7.41797ZM2.33984 31.4336V42H0.533203V31.4336H2.33984ZM9.01953 31.4336V42H7.20312V31.4336H9.01953ZM11.4414 36.834V36.6094C11.4414 35.8477 11.5521 35.1413 11.7734 34.4902C11.9948 33.8327 12.3138 33.263 12.7305 32.7812C13.1471 32.293 13.6517 31.9154 14.2441 31.6484C14.8366 31.375 15.5007 31.2383 16.2363 31.2383C16.9785 31.2383 17.6458 31.375 18.2383 31.6484C18.8372 31.9154 19.3451 32.293 19.7617 32.7812C20.1849 33.263 20.5072 33.8327 20.7285 34.4902C20.9499 35.1413 21.0605 35.8477 21.0605 36.6094V36.834C21.0605 37.5957 20.9499 38.3021 20.7285 38.9531C20.5072 39.6042 20.1849 40.1738 19.7617 40.6621C19.3451 41.1439 18.8405 41.5215 18.248 41.7949C17.6621 42.0618 16.998 42.1953 16.2559 42.1953C15.5137 42.1953 14.8464 42.0618 14.2539 41.7949C13.6615 41.5215 13.1536 41.1439 12.7305 40.6621C12.3138 40.1738 11.9948 39.6042 11.7734 38.9531C11.5521 38.3021 11.4414 37.5957 11.4414 36.834ZM13.248 36.6094V36.834C13.248 37.3613 13.3099 37.8594 13.4336 38.3281C13.5573 38.7904 13.7428 39.2005 13.9902 39.5586C14.2441 39.9167 14.5599 40.1999 14.9375 40.4082C15.3151 40.61 15.7546 40.7109 16.2559 40.7109C16.7507 40.7109 17.1836 40.61 17.5547 40.4082C17.9323 40.1999 18.2448 39.9167 18.4922 39.5586C18.7396 39.2005 18.9251 38.7904 19.0488 38.3281C19.179 37.8594 19.2441 37.3613 19.2441 36.834V36.6094C19.2441 36.0885 19.179 35.597 19.0488 35.1348C18.9251 34.666 18.7363 34.2526 18.4824 33.8945C18.235 33.5299 17.9225 33.2435 17.5449 33.0352C17.1738 32.8268 16.7376 32.7227 16.2363 32.7227C15.7415 32.7227 15.3053 32.8268 14.9277 33.0352C14.5566 33.2435 14.2441 33.5299 13.9902 33.8945C13.7428 34.2526 13.5573 34.666 13.4336 35.1348C13.3099 35.597 13.248 36.0885 13.248 36.6094ZM25.2793 39.1387L30.1523 31.4336H31.9688V42H30.1523V34.2949L25.2793 42H23.4824V31.4336H25.2793V39.1387ZM39.0977 40.7109C39.5273 40.7109 39.9245 40.623 40.2891 40.4473C40.6536 40.2715 40.9531 40.0306 41.1875 39.7246C41.4219 39.4121 41.5553 39.0573 41.5879 38.6602H43.3066C43.2741 39.2852 43.0625 39.8678 42.6719 40.4082C42.2878 40.9421 41.7832 41.375 41.1582 41.707C40.5332 42.0326 39.8464 42.1953 39.0977 42.1953C38.3034 42.1953 37.61 42.0553 37.0176 41.7754C36.4316 41.4954 35.9434 41.1113 35.5527 40.623C35.1686 40.1348 34.8789 39.5749 34.6836 38.9434C34.4948 38.3053 34.4004 37.6315 34.4004 36.9219V36.5117C34.4004 35.8021 34.4948 35.1315 34.6836 34.5C34.8789 33.862 35.1686 33.2988 35.5527 32.8105C35.9434 32.3223 36.4316 31.9382 37.0176 31.6582C37.61 31.3783 38.3034 31.2383 39.0977 31.2383C39.9245 31.2383 40.6471 31.4076 41.2656 31.7461C41.8841 32.0781 42.3691 32.5339 42.7207 33.1133C43.0788 33.6862 43.2741 34.3372 43.3066 35.0664H41.5879C41.5553 34.6302 41.4316 34.2363 41.2168 33.8848C41.0085 33.5332 40.722 33.2533 40.3574 33.0449C39.9993 32.8301 39.5794 32.7227 39.0977 32.7227C38.5443 32.7227 38.0788 32.8333 37.7012 33.0547C37.3301 33.2695 37.0339 33.5625 36.8125 33.9336C36.5977 34.2982 36.4414 34.7051 36.3438 35.1543C36.2526 35.597 36.207 36.0495 36.207 36.5117V36.9219C36.207 37.3841 36.2526 37.8398 36.3438 38.2891C36.4349 38.7383 36.5879 39.1452 36.8027 39.5098C37.0241 39.8743 37.3203 40.1673 37.6914 40.3887C38.069 40.6035 38.5378 40.7109 39.0977 40.7109ZM47.3008 31.4336V42H45.4941V31.4336H47.3008ZM54.2344 31.4336L49.2246 37.4883H46.6953L46.4219 35.9062H48.4922L52.0371 31.4336H54.2344ZM52.291 42L48.4043 37.2148L49.5664 35.9062L54.5859 42H52.291ZM68.1602 31.4336V32.9277H62.8184V31.4336H68.1602ZM63.082 31.4336V42H61.2754V31.4336H63.082ZM69.7617 31.4336V42H67.9453V31.4336H69.7617ZM74.4688 33.4648V46.0625H72.6523V31.4336H74.3125L74.4688 33.4648ZM81.5879 36.6289V36.834C81.5879 37.6022 81.4967 38.3151 81.3145 38.9727C81.1322 39.6237 80.8652 40.1901 80.5137 40.6719C80.1686 41.1536 79.7422 41.528 79.2344 41.7949C78.7266 42.0618 78.1439 42.1953 77.4863 42.1953C76.8158 42.1953 76.2233 42.0846 75.709 41.8633C75.1947 41.6419 74.7585 41.3197 74.4004 40.8965C74.0423 40.4733 73.7559 39.9655 73.541 39.373C73.3327 38.7806 73.1895 38.1133 73.1113 37.3711V36.2773C73.1895 35.4961 73.3359 34.7962 73.5508 34.1777C73.7656 33.5592 74.0488 33.0319 74.4004 32.5957C74.7585 32.153 75.1914 31.8177 75.6992 31.5898C76.207 31.3555 76.793 31.2383 77.457 31.2383C78.1211 31.2383 78.7103 31.3685 79.2246 31.6289C79.7389 31.8828 80.1719 32.2474 80.5234 32.7227C80.875 33.1979 81.1387 33.7676 81.3145 34.4316C81.4967 35.0892 81.5879 35.8216 81.5879 36.6289ZM79.7715 36.834V36.6289C79.7715 36.1016 79.7161 35.6068 79.6055 35.1445C79.4948 34.6758 79.3223 34.2656 79.0879 33.9141C78.86 33.556 78.5671 33.276 78.209 33.0742C77.8509 32.8659 77.4245 32.7617 76.9297 32.7617C76.474 32.7617 76.0768 32.8398 75.7383 32.9961C75.4062 33.1523 75.123 33.3639 74.8887 33.6309C74.6543 33.8913 74.4622 34.1908 74.3125 34.5293C74.1693 34.8613 74.0618 35.2064 73.9902 35.5645V38.0938C74.1204 38.5495 74.3027 38.9792 74.5371 39.3828C74.7715 39.7799 75.084 40.1022 75.4746 40.3496C75.8652 40.5905 76.3568 40.7109 76.9492 40.7109C77.4375 40.7109 77.8574 40.61 78.209 40.4082C78.5671 40.1999 78.86 39.9167 79.0879 39.5586C79.3223 39.2005 79.4948 38.7904 79.6055 38.3281C79.7161 37.8594 79.7715 37.3613 79.7715 36.834ZM83.4141 36.834V36.6094C83.4141 35.8477 83.5247 35.1413 83.7461 34.4902C83.9674 33.8327 84.2865 33.263 84.7031 32.7812C85.1198 32.293 85.6243 31.9154 86.2168 31.6484C86.8092 31.375 87.4733 31.2383 88.209 31.2383C88.9512 31.2383 89.6185 31.375 90.2109 31.6484C90.8099 31.9154 91.3177 32.293 91.7344 32.7812C92.1576 33.263 92.4798 33.8327 92.7012 34.4902C92.9225 35.1413 93.0332 35.8477 93.0332 36.6094V36.834C93.0332 37.5957 92.9225 38.3021 92.7012 38.9531C92.4798 39.6042 92.1576 40.1738 91.7344 40.6621C91.3177 41.1439 90.8132 41.5215 90.2207 41.7949C89.6348 42.0618 88.9707 42.1953 88.2285 42.1953C87.4863 42.1953 86.819 42.0618 86.2266 41.7949C85.6341 41.5215 85.1263 41.1439 84.7031 40.6621C84.2865 40.1738 83.9674 39.6042 83.7461 38.9531C83.5247 38.3021 83.4141 37.5957 83.4141 36.834ZM85.2207 36.6094V36.834C85.2207 37.3613 85.2826 37.8594 85.4062 38.3281C85.5299 38.7904 85.7155 39.2005 85.9629 39.5586C86.2168 39.9167 86.5326 40.1999 86.9102 40.4082C87.2878 40.61 87.7272 40.7109 88.2285 40.7109C88.7233 40.7109 89.1562 40.61 89.5273 40.4082C89.9049 40.1999 90.2174 39.9167 90.4648 39.5586C90.7122 39.2005 90.8978 38.7904 91.0215 38.3281C91.1517 37.8594 91.2168 37.3613 91.2168 36.834V36.6094C91.2168 36.0885 91.1517 35.597 91.0215 35.1348C90.8978 34.666 90.709 34.2526 90.4551 33.8945C90.2077 33.5299 89.8952 33.2435 89.5176 33.0352C89.1465 32.8268 88.7103 32.7227 88.209 32.7227C87.7142 32.7227 87.278 32.8268 86.9004 33.0352C86.5293 33.2435 86.2168 33.5299 85.9629 33.8945C85.7155 34.2526 85.5299 34.666 85.4062 35.1348C85.2826 35.597 85.2207 36.0885 85.2207 36.6094ZM107.447 36.9023V37.1074C107.447 37.8496 107.366 38.5332 107.203 39.1582C107.04 39.7767 106.796 40.3138 106.471 40.7695C106.152 41.2253 105.755 41.5801 105.279 41.834C104.804 42.0814 104.254 42.2051 103.629 42.2051C103.115 42.2051 102.662 42.1367 102.271 42C101.881 41.8568 101.549 41.6517 101.275 41.3848C101.008 41.1178 100.794 40.7988 100.631 40.4277C100.475 40.0501 100.367 39.627 100.309 39.1582V34.4707C100.367 33.9694 100.475 33.5202 100.631 33.123C100.794 32.7259 101.008 32.3874 101.275 32.1074C101.549 31.8275 101.878 31.6126 102.262 31.4629C102.646 31.3132 103.095 31.2383 103.609 31.2383C104.117 31.2383 104.573 31.3294 104.977 31.5117C105.387 31.6875 105.745 31.9414 106.051 32.2734C106.363 32.6055 106.62 33.0059 106.822 33.4746C107.031 33.9368 107.187 34.4577 107.291 35.0371C107.395 35.6165 107.447 36.2383 107.447 36.9023ZM105.641 37.1074V36.9023C105.641 36.4466 105.608 36.0137 105.543 35.6035C105.484 35.1868 105.39 34.806 105.26 34.4609C105.136 34.1094 104.973 33.8034 104.771 33.543C104.57 33.2826 104.326 33.0807 104.039 32.9375C103.759 32.7943 103.437 32.7227 103.072 32.7227C102.682 32.7227 102.356 32.7715 102.096 32.8691C101.842 32.9668 101.643 33.097 101.5 33.2598C101.357 33.416 101.253 33.582 101.188 33.7578V39.8809C101.266 40.0241 101.38 40.1608 101.529 40.291C101.679 40.4147 101.881 40.5189 102.135 40.6035C102.389 40.6816 102.708 40.7207 103.092 40.7207C103.548 40.7207 103.935 40.6296 104.254 40.4473C104.579 40.2585 104.843 39.998 105.045 39.666C105.253 39.334 105.403 38.9499 105.494 38.5137C105.592 38.0775 105.641 37.6087 105.641 37.1074ZM94.8984 37.1074V36.9023C94.8984 36.2383 94.9505 35.6165 95.0547 35.0371C95.1589 34.4577 95.3151 33.9368 95.5234 33.4746C95.7318 33.0059 95.9889 32.6055 96.2949 32.2734C96.6074 31.9414 96.9655 31.6875 97.3691 31.5117C97.7793 31.3294 98.2383 31.2383 98.7461 31.2383C99.2474 31.2383 99.6836 31.3132 100.055 31.4629C100.432 31.6126 100.751 31.8275 101.012 32.1074C101.272 32.3874 101.48 32.7259 101.637 33.123C101.793 33.5202 101.904 33.9694 101.969 34.4707V38.9727C101.91 39.4674 101.803 39.9134 101.646 40.3105C101.49 40.7077 101.282 41.0495 101.021 41.3359C100.761 41.6159 100.439 41.8307 100.055 41.9805C99.6771 42.1302 99.2344 42.2051 98.7266 42.2051C98.1016 42.2051 97.5514 42.0814 97.0762 41.834C96.6009 41.5801 96.2005 41.2253 95.875 40.7695C95.556 40.3138 95.3118 39.7767 95.1426 39.1582C94.9798 38.5332 94.8984 37.8496 94.8984 37.1074ZM96.7148 36.9023V37.1074C96.7148 37.6087 96.7572 38.0775 96.8418 38.5137C96.9329 38.9499 97.0729 39.334 97.2617 39.666C97.457 39.998 97.7109 40.2585 98.0234 40.4473C98.3359 40.6296 98.7201 40.7207 99.1758 40.7207C99.5664 40.7207 99.8887 40.6719 100.143 40.5742C100.396 40.4766 100.598 40.3496 100.748 40.1934C100.898 40.0371 101.012 39.8743 101.09 39.7051V33.7578C101.025 33.582 100.917 33.416 100.768 33.2598C100.624 33.097 100.426 32.9668 100.172 32.8691C99.918 32.7715 99.5924 32.7227 99.1953 32.7227C98.7396 32.7227 98.3522 32.8333 98.0332 33.0547C97.7142 33.276 97.457 33.5788 97.2617 33.9629C97.0729 34.347 96.9329 34.793 96.8418 35.3008C96.7572 35.8021 96.7148 36.3359 96.7148 36.9023ZM100.191 46.0625V27H102.008V46.0625H100.191ZM121.959 36.9023V37.1074C121.959 37.8496 121.878 38.5332 121.715 39.1582C121.552 39.7767 121.308 40.3138 120.982 40.7695C120.663 41.2253 120.266 41.5801 119.791 41.834C119.316 42.0814 118.766 42.2051 118.141 42.2051C117.626 42.2051 117.174 42.1367 116.783 42C116.393 41.8568 116.061 41.6517 115.787 41.3848C115.52 41.1178 115.305 40.7988 115.143 40.4277C114.986 40.0501 114.879 39.627 114.82 39.1582V34.4707C114.879 33.9694 114.986 33.5202 115.143 33.123C115.305 32.7259 115.52 32.3874 115.787 32.1074C116.061 31.8275 116.389 31.6126 116.773 31.4629C117.158 31.3132 117.607 31.2383 118.121 31.2383C118.629 31.2383 119.085 31.3294 119.488 31.5117C119.898 31.6875 120.257 31.9414 120.562 32.2734C120.875 32.6055 121.132 33.0059 121.334 33.4746C121.542 33.9368 121.699 34.4577 121.803 35.0371C121.907 35.6165 121.959 36.2383 121.959 36.9023ZM120.152 37.1074V36.9023C120.152 36.4466 120.12 36.0137 120.055 35.6035C119.996 35.1868 119.902 34.806 119.771 34.4609C119.648 34.1094 119.485 33.8034 119.283 33.543C119.081 33.2826 118.837 33.0807 118.551 32.9375C118.271 32.7943 117.949 32.7227 117.584 32.7227C117.193 32.7227 116.868 32.7715 116.607 32.8691C116.354 32.9668 116.155 33.097 116.012 33.2598C115.868 33.416 115.764 33.582 115.699 33.7578V39.8809C115.777 40.0241 115.891 40.1608 116.041 40.291C116.191 40.4147 116.393 40.5189 116.646 40.6035C116.9 40.6816 117.219 40.7207 117.604 40.7207C118.059 40.7207 118.447 40.6296 118.766 40.4473C119.091 40.2585 119.355 39.998 119.557 39.666C119.765 39.334 119.915 38.9499 120.006 38.5137C120.104 38.0775 120.152 37.6087 120.152 37.1074ZM109.41 37.1074V36.9023C109.41 36.2383 109.462 35.6165 109.566 35.0371C109.671 34.4577 109.827 33.9368 110.035 33.4746C110.243 33.0059 110.501 32.6055 110.807 32.2734C111.119 31.9414 111.477 31.6875 111.881 31.5117C112.291 31.3294 112.75 31.2383 113.258 31.2383C113.759 31.2383 114.195 31.3132 114.566 31.4629C114.944 31.6126 115.263 31.8275 115.523 32.1074C115.784 32.3874 115.992 32.7259 116.148 33.123C116.305 33.5202 116.415 33.9694 116.48 34.4707V38.9727C116.422 39.4674 116.314 39.9134 116.158 40.3105C116.002 40.7077 115.794 41.0495 115.533 41.3359C115.273 41.6159 114.951 41.8307 114.566 41.9805C114.189 42.1302 113.746 42.2051 113.238 42.2051C112.613 42.2051 112.063 42.0814 111.588 41.834C111.113 41.5801 110.712 41.2253 110.387 40.7695C110.068 40.3138 109.824 39.7767 109.654 39.1582C109.492 38.5332 109.41 37.8496 109.41 37.1074ZM111.227 36.9023V37.1074C111.227 37.6087 111.269 38.0775 111.354 38.5137C111.445 38.9499 111.585 39.334 111.773 39.666C111.969 39.998 112.223 40.2585 112.535 40.4473C112.848 40.6296 113.232 40.7207 113.688 40.7207C114.078 40.7207 114.4 40.6719 114.654 40.5742C114.908 40.4766 115.11 40.3496 115.26 40.1934C115.41 40.0371 115.523 39.8743 115.602 39.7051V33.7578C115.536 33.582 115.429 33.416 115.279 33.2598C115.136 33.097 114.938 32.9668 114.684 32.8691C114.43 32.7715 114.104 32.7227 113.707 32.7227C113.251 32.7227 112.864 32.8333 112.545 33.0547C112.226 33.276 111.969 33.5788 111.773 33.9629C111.585 34.347 111.445 34.793 111.354 35.3008C111.269 35.8021 111.227 36.3359 111.227 36.9023ZM114.703 46.0625V27H116.52V46.0625H114.703ZM128.707 42.1953C127.971 42.1953 127.304 42.0716 126.705 41.8242C126.113 41.5703 125.602 41.2155 125.172 40.7598C124.749 40.304 124.423 39.7637 124.195 39.1387C123.967 38.5137 123.854 37.8301 123.854 37.0879V36.6777C123.854 35.8184 123.98 35.0534 124.234 34.3828C124.488 33.7057 124.833 33.1328 125.27 32.6641C125.706 32.1953 126.201 31.8405 126.754 31.5996C127.307 31.3587 127.88 31.2383 128.473 31.2383C129.228 31.2383 129.879 31.3685 130.426 31.6289C130.979 31.8893 131.432 32.2539 131.783 32.7227C132.135 33.1849 132.395 33.7318 132.564 34.3633C132.734 34.9883 132.818 35.6719 132.818 36.4141V37.2246H124.928V35.75H131.012V35.6133C130.986 35.1445 130.888 34.6888 130.719 34.2461C130.556 33.8034 130.296 33.4388 129.938 33.1523C129.579 32.8659 129.091 32.7227 128.473 32.7227C128.062 32.7227 127.685 32.8105 127.34 32.9863C126.995 33.1556 126.699 33.4095 126.451 33.748C126.204 34.0866 126.012 34.5 125.875 34.9883C125.738 35.4766 125.67 36.0397 125.67 36.6777V37.0879C125.67 37.5892 125.738 38.0612 125.875 38.5039C126.018 38.9401 126.223 39.3242 126.49 39.6562C126.764 39.9883 127.092 40.2487 127.477 40.4375C127.867 40.6263 128.31 40.7207 128.805 40.7207C129.443 40.7207 129.983 40.5905 130.426 40.3301C130.868 40.0697 131.256 39.7214 131.588 39.2852L132.682 40.1543C132.454 40.4993 132.164 40.8281 131.812 41.1406C131.461 41.4531 131.028 41.707 130.514 41.9023C130.006 42.0977 129.404 42.1953 128.707 42.1953ZM139.156 40.7109C139.586 40.7109 139.983 40.623 140.348 40.4473C140.712 40.2715 141.012 40.0306 141.246 39.7246C141.48 39.4121 141.614 39.0573 141.646 38.6602H143.365C143.333 39.2852 143.121 39.8678 142.73 40.4082C142.346 40.9421 141.842 41.375 141.217 41.707C140.592 42.0326 139.905 42.1953 139.156 42.1953C138.362 42.1953 137.669 42.0553 137.076 41.7754C136.49 41.4954 136.002 41.1113 135.611 40.623C135.227 40.1348 134.938 39.5749 134.742 38.9434C134.553 38.3053 134.459 37.6315 134.459 36.9219V36.5117C134.459 35.8021 134.553 35.1315 134.742 34.5C134.938 33.862 135.227 33.2988 135.611 32.8105C136.002 32.3223 136.49 31.9382 137.076 31.6582C137.669 31.3783 138.362 31.2383 139.156 31.2383C139.983 31.2383 140.706 31.4076 141.324 31.7461C141.943 32.0781 142.428 32.5339 142.779 33.1133C143.137 33.6862 143.333 34.3372 143.365 35.0664H141.646C141.614 34.6302 141.49 34.2363 141.275 33.8848C141.067 33.5332 140.781 33.2533 140.416 33.0449C140.058 32.8301 139.638 32.7227 139.156 32.7227C138.603 32.7227 138.137 32.8333 137.76 33.0547C137.389 33.2695 137.092 33.5625 136.871 33.9336C136.656 34.2982 136.5 34.7051 136.402 35.1543C136.311 35.597 136.266 36.0495 136.266 36.5117V36.9219C136.266 37.3841 136.311 37.8398 136.402 38.2891C136.493 38.7383 136.646 39.1452 136.861 39.5098C137.083 39.8743 137.379 40.1673 137.75 40.3887C138.128 40.6035 138.596 40.7109 139.156 40.7109ZM147.35 39.1387L152.223 31.4336H154.039V42H152.223V34.2949L147.35 42H145.553V31.4336H147.35V39.1387ZM156.461 36.834V36.6094C156.461 35.8477 156.572 35.1413 156.793 34.4902C157.014 33.8327 157.333 33.263 157.75 32.7812C158.167 32.293 158.671 31.9154 159.264 31.6484C159.856 31.375 160.52 31.2383 161.256 31.2383C161.998 31.2383 162.665 31.375 163.258 31.6484C163.857 31.9154 164.365 32.293 164.781 32.7812C165.204 33.263 165.527 33.8327 165.748 34.4902C165.969 35.1413 166.08 35.8477 166.08 36.6094V36.834C166.08 37.5957 165.969 38.3021 165.748 38.9531C165.527 39.6042 165.204 40.1738 164.781 40.6621C164.365 41.1439 163.86 41.5215 163.268 41.7949C162.682 42.0618 162.018 42.1953 161.275 42.1953C160.533 42.1953 159.866 42.0618 159.273 41.7949C158.681 41.5215 158.173 41.1439 157.75 40.6621C157.333 40.1738 157.014 39.6042 156.793 38.9531C156.572 38.3021 156.461 37.5957 156.461 36.834ZM158.268 36.6094V36.834C158.268 37.3613 158.329 37.8594 158.453 38.3281C158.577 38.7904 158.762 39.2005 159.01 39.5586C159.264 39.9167 159.579 40.1999 159.957 40.4082C160.335 40.61 160.774 40.7109 161.275 40.7109C161.77 40.7109 162.203 40.61 162.574 40.4082C162.952 40.1999 163.264 39.9167 163.512 39.5586C163.759 39.2005 163.945 38.7904 164.068 38.3281C164.199 37.8594 164.264 37.3613 164.264 36.834V36.6094C164.264 36.0885 164.199 35.597 164.068 35.1348C163.945 34.666 163.756 34.2526 163.502 33.8945C163.255 33.5299 162.942 33.2435 162.564 33.0352C162.193 32.8268 161.757 32.7227 161.256 32.7227C160.761 32.7227 160.325 32.8268 159.947 33.0352C159.576 33.2435 159.264 33.5299 159.01 33.8945C158.762 34.2526 158.577 34.666 158.453 35.1348C158.329 35.597 158.268 36.0885 158.268 36.6094ZM175.514 36.0137V37.4785H169.928V36.0137H175.514ZM170.309 31.4336V42H168.502V31.4336H170.309ZM176.979 31.4336V42H175.162V31.4336H176.979ZM186.119 40.1934V34.7539C186.119 34.3372 186.035 33.9759 185.865 33.6699C185.702 33.3574 185.455 33.1165 185.123 32.9473C184.791 32.778 184.381 32.6934 183.893 32.6934C183.437 32.6934 183.036 32.7715 182.691 32.9277C182.353 33.084 182.086 33.2891 181.891 33.543C181.702 33.7969 181.607 34.0703 181.607 34.3633H179.801C179.801 33.9857 179.898 33.6113 180.094 33.2402C180.289 32.8691 180.569 32.5339 180.934 32.2344C181.305 31.9284 181.747 31.6875 182.262 31.5117C182.783 31.3294 183.362 31.2383 184 31.2383C184.768 31.2383 185.445 31.3685 186.031 31.6289C186.624 31.8893 187.086 32.2832 187.418 32.8105C187.757 33.3314 187.926 33.9857 187.926 34.7734V39.6953C187.926 40.0469 187.955 40.4212 188.014 40.8184C188.079 41.2155 188.173 41.5573 188.297 41.8438V42H186.412C186.321 41.7917 186.249 41.515 186.197 41.1699C186.145 40.8184 186.119 40.4928 186.119 40.1934ZM186.432 35.5938L186.451 36.8633H184.625C184.111 36.8633 183.652 36.9056 183.248 36.9902C182.844 37.0684 182.506 37.1888 182.232 37.3516C181.959 37.5143 181.751 37.7194 181.607 37.9668C181.464 38.2077 181.393 38.4909 181.393 38.8164C181.393 39.1484 181.467 39.4512 181.617 39.7246C181.767 39.998 181.992 40.2161 182.291 40.3789C182.597 40.5352 182.971 40.6133 183.414 40.6133C183.967 40.6133 184.456 40.4961 184.879 40.2617C185.302 40.0273 185.637 39.7409 185.885 39.4023C186.139 39.0638 186.275 38.735 186.295 38.416L187.066 39.2852C187.021 39.5586 186.897 39.8613 186.695 40.1934C186.493 40.5254 186.223 40.8444 185.885 41.1504C185.553 41.4499 185.156 41.7005 184.693 41.9023C184.238 42.0977 183.723 42.1953 183.15 42.1953C182.434 42.1953 181.806 42.0553 181.266 41.7754C180.732 41.4954 180.315 41.1211 180.016 40.6523C179.723 40.1771 179.576 39.6465 179.576 39.0605C179.576 38.4941 179.687 37.9961 179.908 37.5664C180.13 37.1302 180.449 36.7689 180.865 36.4824C181.282 36.1895 181.783 35.9681 182.369 35.8184C182.955 35.6686 183.609 35.5938 184.332 35.5938H186.432ZM197.828 31.4336V32.9277H192.721V31.4336H197.828ZM199.42 31.4336V42H197.613V31.4336H199.42ZM192.281 31.4336H194.098L193.824 36.5312C193.779 37.319 193.704 38.0156 193.6 38.6211C193.502 39.2201 193.365 39.7344 193.189 40.1641C193.02 40.5938 192.805 40.9453 192.545 41.2188C192.291 41.4857 191.985 41.6842 191.627 41.8145C191.269 41.9382 190.855 42 190.387 42H189.82V40.4082L190.211 40.3789C190.491 40.3594 190.729 40.2943 190.924 40.1836C191.126 40.0729 191.295 39.9102 191.432 39.6953C191.568 39.474 191.679 39.1908 191.764 38.8457C191.855 38.5007 191.923 38.0905 191.969 37.6152C192.021 37.14 192.06 36.5866 192.086 35.9551L192.281 31.4336ZM201.852 36.834V36.6094C201.852 35.8477 201.962 35.1413 202.184 34.4902C202.405 33.8327 202.724 33.263 203.141 32.7812C203.557 32.293 204.062 31.9154 204.654 31.6484C205.247 31.375 205.911 31.2383 206.646 31.2383C207.389 31.2383 208.056 31.375 208.648 31.6484C209.247 31.9154 209.755 32.293 210.172 32.7812C210.595 33.263 210.917 33.8327 211.139 34.4902C211.36 35.1413 211.471 35.8477 211.471 36.6094V36.834C211.471 37.5957 211.36 38.3021 211.139 38.9531C210.917 39.6042 210.595 40.1738 210.172 40.6621C209.755 41.1439 209.251 41.5215 208.658 41.7949C208.072 42.0618 207.408 42.1953 206.666 42.1953C205.924 42.1953 205.257 42.0618 204.664 41.7949C204.072 41.5215 203.564 41.1439 203.141 40.6621C202.724 40.1738 202.405 39.6042 202.184 38.9531C201.962 38.3021 201.852 37.5957 201.852 36.834ZM203.658 36.6094V36.834C203.658 37.3613 203.72 37.8594 203.844 38.3281C203.967 38.7904 204.153 39.2005 204.4 39.5586C204.654 39.9167 204.97 40.1999 205.348 40.4082C205.725 40.61 206.165 40.7109 206.666 40.7109C207.161 40.7109 207.594 40.61 207.965 40.4082C208.342 40.1999 208.655 39.9167 208.902 39.5586C209.15 39.2005 209.335 38.7904 209.459 38.3281C209.589 37.8594 209.654 37.3613 209.654 36.834V36.6094C209.654 36.0885 209.589 35.597 209.459 35.1348C209.335 34.666 209.146 34.2526 208.893 33.8945C208.645 33.5299 208.333 33.2435 207.955 33.0352C207.584 32.8268 207.148 32.7227 206.646 32.7227C206.152 32.7227 205.715 32.8268 205.338 33.0352C204.967 33.2435 204.654 33.5299 204.4 33.8945C204.153 34.2526 203.967 34.666 203.844 35.1348C203.72 35.597 203.658 36.0885 203.658 36.6094ZM218.697 37.3516H215.23L215.211 35.9062H218.043C218.603 35.9062 219.068 35.8509 219.439 35.7402C219.817 35.6296 220.1 35.4635 220.289 35.2422C220.478 35.0208 220.572 34.7474 220.572 34.4219C220.572 34.168 220.517 33.9466 220.406 33.7578C220.302 33.5625 220.143 33.403 219.928 33.2793C219.713 33.1491 219.446 33.0547 219.127 32.9961C218.814 32.931 218.447 32.8984 218.023 32.8984H215.709V42H213.902V31.4336H218.023C218.694 31.4336 219.296 31.4922 219.83 31.6094C220.37 31.7266 220.829 31.9056 221.207 32.1465C221.591 32.3809 221.884 32.6803 222.086 33.0449C222.288 33.4095 222.389 33.8392 222.389 34.334C222.389 34.653 222.324 34.9557 222.193 35.2422C222.063 35.5286 221.871 35.7826 221.617 36.0039C221.363 36.2253 221.051 36.4076 220.68 36.5508C220.309 36.6875 219.882 36.7754 219.4 36.8145L218.697 37.3516ZM218.697 42H214.576L215.475 40.5352H218.697C219.199 40.5352 219.615 40.4733 219.947 40.3496C220.279 40.2194 220.527 40.0371 220.689 39.8027C220.859 39.5618 220.943 39.2754 220.943 38.9434C220.943 38.6113 220.859 38.3281 220.689 38.0938C220.527 37.8529 220.279 37.6706 219.947 37.5469C219.615 37.4167 219.199 37.3516 218.697 37.3516H215.953L215.973 35.9062H219.4L220.055 36.4531C220.634 36.4987 221.126 36.6419 221.529 36.8828C221.933 37.1237 222.239 37.4297 222.447 37.8008C222.656 38.1654 222.76 38.5625 222.76 38.9922C222.76 39.487 222.665 39.9232 222.477 40.3008C222.294 40.6784 222.027 40.9941 221.676 41.248C221.324 41.4954 220.898 41.6842 220.396 41.8145C219.895 41.9382 219.329 42 218.697 42Z" fill="white"/>
</svg>
